<svg fill="#000000" xmlns="http://www.w3.org/2000/svg"  viewBox="0 0 50 50" width="50px" height="50px"><path d="M 25 2 C 12.309534 2 2 12.309534 2 25 A 1.0001 1.0001 0 0 0 3 26 L 11 26 A 1.0001 1.0001 0 0 0 12 25 C 12 17.808438 17.808438 12 25 12 C 32.191562 12 38 17.808438 38 25 C 38 31.854112 32.721116 37.438984 26 37.949219 L 26 31 A 1.0001 1.0001 0 0 0 25 30 L 17 30 A 1.0001 1.0001 0 0 0 16 31 L 16 38 L 12 38 L 12 34 A 1.0001 1.0001 0 0 0 11 33 L 6 33 A 1.0001 1.0001 0 0 0 5 34 L 5 39 A 1.0001 1.0001 0 0 0 6 40 L 10 40 L 10 45 A 1.0001 1.0001 0 0 0 11 46 L 17 46 A 1.0001 1.0001 0 0 0 18 45 L 18 40 L 24 40 L 24 47 A 1.0001 1.0001 0 0 0 25 48 C 37.690466 48 48 37.690466 48 25 C 48 12.309534 37.690466 2 25 2 z M 25 4 C 36.609534 4 46 13.390466 46 25 C 46 36.267005 37.133867 45.368684 26 45.900391 L 26 39.898438 C 33.798825 39.372974 40 32.92996 40 25 C 40 16.727562 33.272438 10 25 10 C 17.07004 10 10.627026 16.201175 10.101562 24 L 4.0996094 24 C 4.6313159 12.866133 13.732995 4 25 4 z M 18 32 L 24 32 L 24 38 L 18 38 L 18 32 z M 7 35 L 10 35 L 10 38 L 7 38 L 7 35 z M 12 40 L 16 40 L 16 44 L 12 44 L 12 40 z"/></svg>